<svg width="512" height="512" viewBox="0 0 512 512" fill="none" xmlns="http://www.w3.org/2000/svg">
<g clip-path="url(#clip0_2070_40)">
<mask id="mask0_2070_40" style="mask-type:alpha" maskUnits="userSpaceOnUse" x="0" y="0" width="512" height="512">
<path d="M256 512C397.385 512 512 397.385 512 256C512 114.615 397.385 0 256 0C114.615 0 0 114.615 0 256C0 397.385 114.615 512 256 512Z" fill="#33CC33"/>
</mask>
<g mask="url(#mask0_2070_40)">
<path d="M256 512C397.385 512 512 397.385 512 256C512 114.615 397.385 0 256 0C114.615 0 0 114.615 0 256C0 397.385 114.615 512 256 512Z" fill="#15803D"/>
<path d="M88 258C88 202.772 132.772 158 188 158H288V527H88V258Z" fill="white"/>
<path d="M218 158H343C398.228 158 443 202.772 443 258C443 313.228 398.228 358 343 358H218V158Z" fill="white"/>
<path d="M339 333C380.421 333 414 299.421 414 258C414 216.579 380.421 183 339 183C297.579 183 264 216.579 264 258C264 299.421 297.579 333 339 333Z" fill="#15803D"/>
<path d="M256.478 322.112L269.357 284.509L296.069 318.589L256.478 322.112Z" fill="#15803D"/>
<path d="M310 271C315.523 271 320 266.523 320 261C320 255.477 315.523 251 310 251C304.477 251 300 255.477 300 261C300 266.523 304.477 271 310 271Z" fill="white"/>
<path d="M343 271C348.523 271 353 266.523 353 261C353 255.477 348.523 251 343 251C337.477 251 333 255.477 333 261C333 266.523 337.477 271 343 271Z" fill="white"/>
<path d="M376 271C381.523 271 386 266.523 386 261C386 255.477 381.523 251 376 251C370.477 251 366 255.477 366 261C366 266.523 370.477 271 376 271Z" fill="white"/>
</g>
</g>
<defs>
<clipPath id="clip0_2070_40">
<rect width="512" height="512" fill="white"/>
</clipPath>
</defs>
</svg>
